<svg xmlns="http://www.w3.org/2000/svg" xmlns:xlink="http://www.w3.org/1999/xlink" width="37" height="37" viewBox="0 0 37 37"><defs><linearGradient id="a" x1="0.142" y1="0.288" x2="0.85" y2="0.776" gradientUnits="objectBoundingBox"><stop offset="0" stop-color="#cbe9ff"/><stop offset="1" stop-color="#f5faff"/></linearGradient><linearGradient id="b" x1="-1.541" x2="-1.633" y2="0.894" gradientUnits="objectBoundingBox"><stop offset="0" stop-color="#2fa4ff"/><stop offset="1" stop-color="#91d0ff"/></linearGradient></defs><g transform="translate(-3.091 -3.313)"><g transform="translate(3.091 3.313)" fill="url(#a)"><path d="M 18.5 36 C 13.82557964324951 36 9.430939674377441 34.17967987060547 6.125629901885986 30.87437057495117 C 2.820319890975952 27.56905937194824 1 23.17441940307617 1 18.5 C 1 13.82557964324951 2.820319890975952 9.430939674377441 6.125629901885986 6.125629901885986 C 9.430939674377441 2.820319890975952 13.82557964324951 1 18.5 1 C 23.17441940307617 1 27.56905937194824 2.820319890975952 30.87437057495117 6.125629901885986 C 34.17967987060547 9.430939674377441 36 13.82557964324951 36 18.5 C 36 23.17441940307617 34.17967987060547 27.56905937194824 30.87437057495117 30.87437057495117 C 27.56905937194824 34.17967987060547 23.17441940307617 36 18.5 36 Z" stroke="none"/><path d="M 18.5 2 C 14.09268951416016 2 9.949180603027344 3.716300964355469 6.832740783691406 6.832740783691406 C 3.716300964355469 9.949180603027344 2 14.09268951416016 2 18.5 C 2 22.90731048583984 3.716300964355469 27.05081939697266 6.832740783691406 30.16725921630859 C 9.949180603027344 33.28369903564453 14.09268951416016 35 18.5 35 C 22.90731048583984 35 27.05081939697266 33.28369903564453 30.16725921630859 30.16725921630859 C 33.28369903564453 27.05081939697266 35 22.90731048583984 35 18.5 C 35 14.09268951416016 33.28369903564453 9.949180603027344 30.16725921630859 6.832740783691406 C 27.05081939697266 3.716300964355469 22.90731048583984 2 18.5 2 M 18.5 0 C 28.71726989746094 0 37 8.282730102539062 37 18.5 C 37 28.71726989746094 28.71726989746094 37 18.5 37 C 8.282730102539062 37 0 28.71726989746094 0 18.5 C 0 8.282730102539062 8.282730102539062 0 18.5 0 Z" stroke="none" fill="#f5fbff"/></g><g transform="translate(14.091 14.313)" opacity="0.652"><rect width="3" height="8" rx="1.5" transform="translate(0 7)" fill="url(#b)"/><rect width="3" height="12" rx="1.5" transform="translate(6 3)" fill="url(#b)"/><rect width="3" height="15" rx="1.5" transform="translate(12)" fill="url(#b)"/></g><path d="M2.5,0C3.881,0,3.589,1.916,3.589,4.4S3.881,9,2.5,9,0,6.985,0,4.5,1.119,0,2.5,0Z" transform="translate(29.6 36.15) rotate(-139)" fill="#fff" opacity="0.667"/></g></svg>