<svg xmlns="http://www.w3.org/2000/svg" viewBox="0 0 15.262 14.457"><g transform="translate(0.15 -22.247)"><g transform="translate(6.408 27.808)"><g transform="translate(0 0)"><path d="M158.078,203.557l-1.432-1.17c-.259-.212-.618,0-.618.372v.716l-5.947.083a.46.46,0,0,0,0,.909l5.947-.083v.716c0,.37.36.582.618.372l1.432-1.17A.5.5,0,0,0,158.078,203.557Z" transform="translate(-149.689 -202.303)" fill="#a7cae8" stroke="#a7cae8" stroke-width="0.3"/></g></g><g transform="translate(0 22.397)"><path d="M13.044,32.394a.455.455,0,0,0-.621.166,6.17,6.17,0,1,1,0-6.169.455.455,0,0,0,.787-.455,7.079,7.079,0,1,0,0,7.079A.455.455,0,0,0,13.044,32.394Z" transform="translate(0 -22.397)" fill="#a7cae8" stroke="#a7cae8" stroke-width="0.3"/></g></g></svg>